<svg width="100" height="50" viewBox="0 0 207 112" fill="none" xmlns="http://www.w3.org/2000/svg">
<mask id="path-1-outside-1_376_1636" maskUnits="userSpaceOnUse" x="0.651367" y="0" width="206" height="112" fill="black">
<rect fill="white" x="0.651367" width="206" height="112"/>
<path fill-rule="evenodd" clip-rule="evenodd" d="M50.7077 111C27.6069 111 14.5585 94.7836 10.0192 87.8127C-2.58736 68.5141 -0.868285 48.4482 14.6259 34.1406C17.0001 31.9482 19.627 30.278 21.209 29.2721L21.2092 29.2721C21.8025 28.8948 22.2488 28.6111 22.4797 28.4283C27.3391 25.6377 33.0264 23.5998 39.1498 22.455C44.0347 21.5418 50.3231 21.4401 52.0672 21.5392C56.6557 21.8118 66.9695 24.6115 70.5276 28.5536C71.1691 29.2643 71.6858 30.0242 72.0669 30.8176C73.6114 34.3472 72.9684 38.1551 70.2879 41.3519C77.8796 40.3952 87.8232 37.965 87.8232 31.6976V6.11626C87.8232 3.29063 91.1769 1 95.3138 1H96.9214H110.295H111.902C116.039 1 119.393 3.29063 119.393 6.11626V31.6976C119.393 37.965 129.337 40.3952 136.928 41.3519C134.248 38.1551 133.605 34.3472 135.149 30.8176C135.53 30.0242 136.047 29.2643 136.689 28.5536C140.247 24.6115 150.561 21.8118 155.149 21.5392C156.893 21.4401 163.182 21.5418 168.066 22.455C174.19 23.5998 179.877 25.6377 184.737 28.4283C184.967 28.611 185.413 28.8945 186.006 29.2714L186.007 29.2718L186.007 29.272C187.589 30.2778 190.216 31.9481 192.59 34.1406C208.085 48.4482 209.804 68.5141 197.197 87.8127C192.658 94.7836 179.609 111 156.509 111C151.551 111.019 146.633 110.393 142.018 109.155C141.604 109.052 140.528 108.614 139.254 108.038C131.898 105.323 118.177 97.8676 125.254 79.2999C127.727 76.1578 131.197 73.4334 135.411 71.3263C130.672 70.2507 126.056 68.9356 121.602 67.3919L121.157 67.2384C116.308 65.5992 110.54 64.5291 104.705 64.2046C98.0223 64.3486 91.3064 65.4259 85.9455 67.2384L85.4998 67.3919C81.0462 68.9356 76.4305 70.2507 71.691 71.3263C75.9052 73.4334 79.3757 76.1578 81.8482 79.2999C88.7186 97.3244 75.9893 104.877 68.5092 107.787C67.0042 108.484 65.6708 109.037 65.1981 109.155C60.5833 110.393 55.6655 111.019 50.7077 111ZM131.871 97.6372C129.477 93.2408 128.538 87.8102 131.749 81.6944C135.411 77.2805 140.66 74.3554 147.07 72.5618C148.673 72.0662 149.555 70.8753 149.189 69.6997C148.824 68.5241 147.309 67.6809 145.55 67.6732C145.549 67.6728 145.54 67.6723 145.525 67.6714L145.493 67.6696C144.815 67.6322 138.001 67.2567 124.951 62.8L124.501 62.6465C117.909 60.4161 110.715 59.3554 103.551 59.4643C96.3869 59.3554 89.1933 60.4161 82.601 62.6465L82.1515 62.8C69.1017 67.2567 62.2873 67.6322 61.6088 67.6696L61.5697 67.6718C61.5592 67.6725 61.5535 67.6729 61.5526 67.6732C59.7931 67.6809 58.2786 68.5241 57.9129 69.6997C57.5473 70.8753 58.429 72.0662 60.032 72.5618C66.4427 74.3554 71.691 77.2805 75.3533 81.6944C78.6114 87.9006 77.5961 93.4012 75.1245 97.8314C74.9303 98.0031 74.7312 98.1817 74.5261 98.3657C72.2844 100.377 69.3226 103.034 64.1943 104.402C59.3664 105.691 54.7186 105.902 50.7077 105.883C32.0189 105.883 20.8055 91.7931 16.8618 85.7329C5.36759 68.1355 6.7833 49.9856 20.6482 37.1822C27.5827 30.2915 39.2097 26.3139 51.4418 26.6478C56.7975 26.9573 63.2993 28.8785 64.9247 32.3806C66.1549 36.2194 63.9968 40.1958 59.4005 42.5594C58.1988 43.2525 57.7592 44.3847 58.3001 45.3935C58.841 46.4023 60.247 47.0728 61.8199 47.0719C63.1869 47.0719 95.2988 46.8698 95.2988 31.6976V6.11626H111.917V31.6976C111.917 46.8698 144.029 47.0719 145.396 47.0719C146.969 47.0728 148.375 46.4023 148.916 45.3935C149.457 44.3847 149.017 43.2525 147.816 42.5594C143.219 40.1958 141.061 36.2194 142.292 32.3806C143.917 28.8785 150.419 26.9573 155.774 26.6478C168.007 26.3139 179.634 30.2915 186.568 37.1822C200.433 49.9856 201.849 68.1355 190.354 85.7329C186.411 91.7931 175.197 105.883 156.509 105.883C152.498 105.902 147.85 105.691 143.022 104.402C137.894 103.034 134.932 100.377 132.69 98.3657C132.406 98.1112 132.134 97.8671 131.871 97.6372ZM106.549 52.1629V41.9304C106.549 40.5176 104.873 39.3723 102.804 39.3723C100.736 39.3723 99.0588 40.5176 99.0588 41.9304V52.1629C99.0588 53.5757 100.736 54.721 102.804 54.721C104.873 54.721 106.549 53.5757 106.549 52.1629ZM26.6586 40.2236C22.3296 44.2624 19.3368 48.8954 17.8872 53.8021C17.4625 55.1845 18.7585 56.5404 20.7823 56.8309C21.0362 56.8664 21.2947 56.8844 21.5538 56.8847C23.3296 56.8813 24.8578 56.0266 25.213 54.8381C26.4472 50.6526 28.9937 46.6993 32.6773 43.2498C36.4536 39.5122 42.5068 37.1453 49.1377 36.8136C51.2061 36.8136 52.883 35.6683 52.883 34.2554C52.883 32.8426 51.2061 31.6973 49.1377 31.6973C40.1169 32.0108 31.8168 35.1591 26.6586 40.2236ZM184.117 78.7276C182.668 83.6343 179.675 88.2673 175.346 92.3062C170.188 97.3707 161.887 100.519 152.867 100.832C150.798 100.832 149.121 99.6871 149.121 98.2743C149.121 96.8615 150.798 95.7162 152.867 95.7162C159.498 95.3845 165.551 93.0175 169.327 89.2799C173.011 85.8304 175.557 81.8771 176.791 77.6916C177.147 76.5032 178.675 75.6485 180.451 75.6451C180.71 75.6453 180.968 75.6633 181.222 75.6988C183.246 75.9893 184.542 77.3452 184.117 78.7276Z"/>
</mask>
<path fill-rule="evenodd" clip-rule="evenodd" d="M50.7077 111C27.6069 111 14.5585 94.7836 10.0192 87.8127C-2.58736 68.5141 -0.868285 48.4482 14.6259 34.1406C17.0001 31.9482 19.627 30.278 21.209 29.2721L21.2092 29.2721C21.8025 28.8948 22.2488 28.6111 22.4797 28.4283C27.3391 25.6377 33.0264 23.5998 39.1498 22.455C44.0347 21.5418 50.3231 21.4401 52.0672 21.5392C56.6557 21.8118 66.9695 24.6115 70.5276 28.5536C71.1691 29.2643 71.6858 30.0242 72.0669 30.8176C73.6114 34.3472 72.9684 38.1551 70.2879 41.3519C77.8796 40.3952 87.8232 37.965 87.8232 31.6976V6.11626C87.8232 3.29063 91.1769 1 95.3138 1H96.9214H110.295H111.902C116.039 1 119.393 3.29063 119.393 6.11626V31.6976C119.393 37.965 129.337 40.3952 136.928 41.3519C134.248 38.1551 133.605 34.3472 135.149 30.8176C135.53 30.0242 136.047 29.2643 136.689 28.5536C140.247 24.6115 150.561 21.8118 155.149 21.5392C156.893 21.4401 163.182 21.5418 168.066 22.455C174.19 23.5998 179.877 25.6377 184.737 28.4283C184.967 28.611 185.413 28.8945 186.006 29.2714L186.007 29.2718L186.007 29.272C187.589 30.2778 190.216 31.9481 192.59 34.1406C208.085 48.4482 209.804 68.5141 197.197 87.8127C192.658 94.7836 179.609 111 156.509 111C151.551 111.019 146.633 110.393 142.018 109.155C141.604 109.052 140.528 108.614 139.254 108.038C131.898 105.323 118.177 97.8676 125.254 79.2999C127.727 76.1578 131.197 73.4334 135.411 71.3263C130.672 70.2507 126.056 68.9356 121.602 67.3919L121.157 67.2384C116.308 65.5992 110.54 64.5291 104.705 64.2046C98.0223 64.3486 91.3064 65.4259 85.9455 67.2384L85.4998 67.3919C81.0462 68.9356 76.4305 70.2507 71.691 71.3263C75.9052 73.4334 79.3757 76.1578 81.8482 79.2999C88.7186 97.3244 75.9893 104.877 68.5092 107.787C67.0042 108.484 65.6708 109.037 65.1981 109.155C60.5833 110.393 55.6655 111.019 50.7077 111ZM131.871 97.6372C129.477 93.2408 128.538 87.8102 131.749 81.6944C135.411 77.2805 140.66 74.3554 147.07 72.5618C148.673 72.0662 149.555 70.8753 149.189 69.6997C148.824 68.5241 147.309 67.6809 145.55 67.6732C145.549 67.6728 145.54 67.6723 145.525 67.6714L145.493 67.6696C144.815 67.6322 138.001 67.2567 124.951 62.8L124.501 62.6465C117.909 60.4161 110.715 59.3554 103.551 59.4643C96.3869 59.3554 89.1933 60.4161 82.601 62.6465L82.1515 62.8C69.1017 67.2567 62.2873 67.6322 61.6088 67.6696L61.5697 67.6718C61.5592 67.6725 61.5535 67.6729 61.5526 67.6732C59.7931 67.6809 58.2786 68.5241 57.9129 69.6997C57.5473 70.8753 58.429 72.0662 60.032 72.5618C66.4427 74.3554 71.691 77.2805 75.3533 81.6944C78.6114 87.9006 77.5961 93.4012 75.1245 97.8314C74.9303 98.0031 74.7312 98.1817 74.5261 98.3657C72.2844 100.377 69.3226 103.034 64.1943 104.402C59.3664 105.691 54.7186 105.902 50.7077 105.883C32.0189 105.883 20.8055 91.7931 16.8618 85.7329C5.36759 68.1355 6.7833 49.9856 20.6482 37.1822C27.5827 30.2915 39.2097 26.3139 51.4418 26.6478C56.7975 26.9573 63.2993 28.8785 64.9247 32.3806C66.1549 36.2194 63.9968 40.1958 59.4005 42.5594C58.1988 43.2525 57.7592 44.3847 58.3001 45.3935C58.841 46.4023 60.247 47.0728 61.8199 47.0719C63.1869 47.0719 95.2988 46.8698 95.2988 31.6976V6.11626H111.917V31.6976C111.917 46.8698 144.029 47.0719 145.396 47.0719C146.969 47.0728 148.375 46.4023 148.916 45.3935C149.457 44.3847 149.017 43.2525 147.816 42.5594C143.219 40.1958 141.061 36.2194 142.292 32.3806C143.917 28.8785 150.419 26.9573 155.774 26.6478C168.007 26.3139 179.634 30.2915 186.568 37.1822C200.433 49.9856 201.849 68.1355 190.354 85.7329C186.411 91.7931 175.197 105.883 156.509 105.883C152.498 105.902 147.85 105.691 143.022 104.402C137.894 103.034 134.932 100.377 132.69 98.3657C132.406 98.1112 132.134 97.8671 131.871 97.6372ZM106.549 52.1629V41.9304C106.549 40.5176 104.873 39.3723 102.804 39.3723C100.736 39.3723 99.0588 40.5176 99.0588 41.9304V52.1629C99.0588 53.5757 100.736 54.721 102.804 54.721C104.873 54.721 106.549 53.5757 106.549 52.1629ZM26.6586 40.2236C22.3296 44.2624 19.3368 48.8954 17.8872 53.8021C17.4625 55.1845 18.7585 56.5404 20.7823 56.8309C21.0362 56.8664 21.2947 56.8844 21.5538 56.8847C23.3296 56.8813 24.8578 56.0266 25.213 54.8381C26.4472 50.6526 28.9937 46.6993 32.6773 43.2498C36.4536 39.5122 42.5068 37.1453 49.1377 36.8136C51.2061 36.8136 52.883 35.6683 52.883 34.2554C52.883 32.8426 51.2061 31.6973 49.1377 31.6973C40.1169 32.0108 31.8168 35.1591 26.6586 40.2236ZM184.117 78.7276C182.668 83.6343 179.675 88.2673 175.346 92.3062C170.188 97.3707 161.887 100.519 152.867 100.832C150.798 100.832 149.121 99.6871 149.121 98.2743C149.121 96.8615 150.798 95.7162 152.867 95.7162C159.498 95.3845 165.551 93.0175 169.327 89.2799C173.011 85.8304 175.557 81.8771 176.791 77.6916C177.147 76.5032 178.675 75.6485 180.451 75.6451C180.71 75.6453 180.968 75.6633 181.222 75.6988C183.246 75.9893 184.542 77.3452 184.117 78.7276Z" fill="#FFC59E"/>
<path d="M10.0192 87.8127L10.8572 87.267L10.8564 87.2658L10.0192 87.8127ZM50.7077 111L50.7116 110H50.7077V111ZM14.6259 34.1406L15.3043 34.8752L15.3043 34.8752L14.6259 34.1406ZM21.209 29.2721L20.679 28.4241L20.6725 28.4283L21.209 29.2721ZM21.2092 29.2721L21.7392 30.1201L21.7457 30.1159L21.2092 29.2721ZM22.4797 28.4283L21.9817 27.5611L21.9172 27.5981L21.8589 27.6443L22.4797 28.4283ZM39.1498 22.455L38.9661 21.4721L38.9661 21.4721L39.1498 22.455ZM52.0672 21.5392L52.1265 20.541L52.124 20.5408L52.0672 21.5392ZM70.5276 28.5536L69.7853 29.2236L69.7853 29.2236L70.5276 28.5536ZM72.0669 30.8176L72.9831 30.4167L72.976 30.4005L72.9683 30.3845L72.0669 30.8176ZM70.2879 41.3519L69.5217 40.7094L67.8838 42.6628L70.413 42.3441L70.2879 41.3519ZM136.928 41.3519L136.803 42.3441L139.332 42.6628L137.695 40.7094L136.928 41.3519ZM135.149 30.8176L134.248 30.3845L134.24 30.4005L134.233 30.4167L135.149 30.8176ZM136.689 28.5536L137.431 29.2236L137.431 29.2236L136.689 28.5536ZM155.149 21.5392L155.092 20.5408L155.09 20.541L155.149 21.5392ZM168.066 22.455L167.883 23.438L167.883 23.438L168.066 22.455ZM184.737 28.4283L185.357 27.6443L185.299 27.5981L185.235 27.5611L184.737 28.4283ZM186.006 29.2714L186.552 28.4336L186.543 28.4275L186.006 29.2714ZM186.007 29.2718L186.564 28.4417L186.553 28.434L186.007 29.2718ZM186.007 29.272L185.449 30.1021L185.46 30.1091L185.471 30.1159L186.007 29.272ZM192.59 34.1406L193.269 33.4059L193.269 33.4059L192.59 34.1406ZM197.197 87.8127L196.36 87.2658L196.359 87.267L197.197 87.8127ZM156.509 111L156.509 110L156.505 110L156.509 111ZM142.018 109.155L142.277 108.189L142.269 108.187L142.26 108.185L142.018 109.155ZM139.254 108.038L139.667 107.127L139.634 107.112L139.601 107.1L139.254 108.038ZM125.254 79.2999L124.468 78.6816L124.374 78.8013L124.32 78.9438L125.254 79.2999ZM135.411 71.3263L135.858 72.2207L138.36 70.97L135.633 70.3511L135.411 71.3263ZM121.602 67.3919L121.93 66.447L121.928 66.4464L121.602 67.3919ZM121.157 67.2384L121.482 66.2929L121.477 66.291L121.157 67.2384ZM104.705 64.2046L104.76 63.2062L104.722 63.204L104.683 63.2049L104.705 64.2046ZM85.9455 67.2384L85.6252 66.291L85.6199 66.2929L85.9455 67.2384ZM85.4998 67.3919L85.1742 66.4464L85.1723 66.447L85.4998 67.3919ZM71.691 71.3263L71.4697 70.3511L68.7424 70.97L71.2438 72.2207L71.691 71.3263ZM81.8482 79.2999L82.7826 78.9438L82.7283 78.8013L82.634 78.6816L81.8482 79.2999ZM68.5092 107.787L68.1466 106.855L68.1174 106.867L68.0889 106.88L68.5092 107.787ZM65.1981 109.155L64.9563 108.185L64.9477 108.187L64.9391 108.189L65.1981 109.155ZM131.749 81.6944L130.979 81.0558L130.912 81.1366L130.864 81.2295L131.749 81.6944ZM131.871 97.6372L130.992 98.1153L131.078 98.2728L131.213 98.3908L131.871 97.6372ZM147.07 72.5618L147.34 73.5248L147.353 73.5212L147.366 73.5172L147.07 72.5618ZM145.55 67.6732L145.199 68.6096L145.366 68.6725L145.545 68.6732L145.55 67.6732ZM145.525 67.6714L145.583 66.673L145.581 66.6729L145.525 67.6714ZM145.493 67.6696L145.549 66.6712L145.549 66.6711L145.493 67.6696ZM124.951 62.8L125.274 61.8537L125.274 61.8537L124.951 62.8ZM124.501 62.6465L124.824 61.7002L124.822 61.6993L124.501 62.6465ZM103.551 59.4643L103.536 60.4642L103.551 60.4644L103.566 60.4642L103.551 59.4643ZM82.601 62.6465L82.2805 61.6993L82.2778 61.7002L82.601 62.6465ZM82.1515 62.8L81.8284 61.8537L81.8283 61.8537L82.1515 62.8ZM61.6088 67.6696L61.5537 66.6711L61.5524 66.6712L61.6088 67.6696ZM61.5697 67.6718L61.5133 66.6734L61.5087 66.6737L61.5697 67.6718ZM61.5526 67.6732L61.5569 68.6732L61.7419 68.6724L61.9143 68.6056L61.5526 67.6732ZM60.032 72.5618L59.7367 73.5172L59.7496 73.5212L59.7626 73.5248L60.032 72.5618ZM75.3533 81.6944L76.2387 81.2295L76.1899 81.1366L76.1229 81.0558L75.3533 81.6944ZM75.1245 97.8314L75.7869 98.5805L75.9147 98.4675L75.9978 98.3186L75.1245 97.8314ZM74.5261 98.3657L75.1939 99.1101L75.1939 99.1101L74.5261 98.3657ZM64.1943 104.402L63.9365 103.436L63.9365 103.436L64.1943 104.402ZM50.7077 105.883L50.7123 104.883H50.7077V105.883ZM16.8618 85.7329L17.6999 85.1875L17.699 85.1861L16.8618 85.7329ZM20.6482 37.1822L21.3267 37.9168L21.3401 37.9044L21.3531 37.8915L20.6482 37.1822ZM51.4418 26.6478L51.4995 25.6495L51.4843 25.6486L51.4691 25.6482L51.4418 26.6478ZM64.9247 32.3806L65.877 32.0754L65.858 32.0161L65.8318 31.9596L64.9247 32.3806ZM59.4005 42.5594L58.9432 41.6701L58.9217 41.6811L58.9008 41.6931L59.4005 42.5594ZM58.3001 45.3935L57.4188 45.866L57.4188 45.866L58.3001 45.3935ZM61.8199 47.0719L61.8199 46.0719L61.8194 46.0719L61.8199 47.0719ZM95.2988 6.11626V5.11626H94.2988V6.11626H95.2988ZM111.917 6.11626H112.917V5.11626H111.917V6.11626ZM145.396 47.0719L145.397 46.0719H145.396V47.0719ZM148.916 45.3935L149.797 45.866L149.797 45.866L148.916 45.3935ZM147.816 42.5594L148.315 41.6931L148.295 41.6811L148.273 41.6701L147.816 42.5594ZM142.292 32.3806L141.384 31.9596L141.358 32.0161L141.339 32.0754L142.292 32.3806ZM155.774 26.6478L155.747 25.6482L155.732 25.6486L155.717 25.6495L155.774 26.6478ZM186.568 37.1822L185.863 37.8915L185.876 37.9044L185.89 37.9168L186.568 37.1822ZM190.354 85.7329L189.517 85.1861L189.516 85.1875L190.354 85.7329ZM156.509 105.883V104.883L156.504 104.883L156.509 105.883ZM143.022 104.402L143.28 103.436L143.28 103.436L143.022 104.402ZM132.69 98.3657L132.022 99.1101L132.022 99.1101L132.69 98.3657ZM17.8872 53.8021L18.8432 54.0958L18.8463 54.0854L17.8872 53.8021ZM26.6586 40.2236L27.3408 40.9547L27.3501 40.946L27.3592 40.9371L26.6586 40.2236ZM20.7823 56.8309L20.6402 57.8208L20.644 57.8213L20.7823 56.8309ZM21.5538 56.8847L21.5528 57.8847L21.5558 57.8846L21.5538 56.8847ZM25.213 54.8381L26.1711 55.1245L26.1721 55.121L25.213 54.8381ZM32.6773 43.2498L33.3608 43.9797L33.3709 43.9703L33.3807 43.9606L32.6773 43.2498ZM49.1377 36.8136V35.8136H49.1127L49.0877 35.8148L49.1377 36.8136ZM49.1377 31.6973V30.6973H49.1203L49.103 30.6979L49.1377 31.6973ZM175.346 92.3062L174.664 91.575L174.654 91.5837L174.645 91.5926L175.346 92.3062ZM184.117 78.7276L183.161 78.4339L183.158 78.4443L184.117 78.7276ZM152.867 100.832V101.832H152.884L152.901 101.832L152.867 100.832ZM152.867 95.7162V96.7162H152.892L152.917 96.7149L152.867 95.7162ZM169.327 89.2799L168.644 88.55L168.634 88.5594L168.624 88.5692L169.327 89.2799ZM176.791 77.6916L175.833 77.4052L175.832 77.4087L176.791 77.6916ZM180.451 75.6451L180.452 74.6451L180.449 74.6451L180.451 75.6451ZM181.222 75.6988L181.364 74.7089L181.36 74.7084L181.222 75.6988ZM9.1812 88.3584C13.7788 95.4188 27.0891 112 50.7077 112V110C28.1248 110 15.3381 94.1483 10.8572 87.267L9.1812 88.3584ZM13.9475 33.4059C6.03534 40.7121 1.60249 49.5302 0.788428 59.0196C-0.0248915 68.5003 2.78097 78.5607 9.18199 88.3596L10.8564 87.2658C4.65087 77.7662 2.01299 68.1443 2.78111 59.1905C3.54849 50.2453 7.72224 41.8767 15.3043 34.8752L13.9475 33.4059ZM20.6725 28.4283C19.093 29.4325 16.3954 31.1454 13.9475 33.4059L15.3043 34.8752C17.6047 32.7509 20.1611 31.1234 21.7456 30.116L20.6725 28.4283ZM20.6792 28.4241L20.679 28.4241L21.739 30.1201L21.7392 30.1201L20.6792 28.4241ZM21.8589 27.6443C21.6799 27.786 21.2933 28.0336 20.6726 28.4282L21.7457 30.1159C22.3117 29.7561 22.8177 29.4361 23.1005 29.2122L21.8589 27.6443ZM38.9661 21.4721C32.7444 22.6352 26.9489 24.7087 21.9817 27.5611L22.9777 29.2954C27.7293 26.5668 33.3084 24.5645 39.3336 23.438L38.9661 21.4721ZM52.124 20.5408C50.3149 20.438 43.9441 20.5414 38.9661 21.4721L39.3336 23.438C44.1252 22.5422 50.3313 22.4421 52.0105 22.5376L52.124 20.5408ZM71.27 27.8836C69.3068 25.7086 65.6226 23.9572 62.0066 22.7239C58.352 21.4774 54.5354 20.6841 52.1265 20.541L52.0079 22.5375C54.1876 22.6669 57.8221 23.4098 61.361 24.6168C64.9386 25.837 68.1903 27.4566 69.7853 29.2236L71.27 27.8836ZM72.9683 30.3845C72.5423 29.4978 71.97 28.6591 71.27 27.8836L69.7853 29.2236C70.3683 29.8696 70.8293 30.5507 71.1656 31.2506L72.9683 30.3845ZM71.0542 41.9944C73.9534 38.5368 74.6951 34.3291 72.9831 30.4167L71.1508 31.2184C72.5278 34.3653 71.9834 37.7735 69.5217 40.7094L71.0542 41.9944ZM86.8232 31.6976C86.8232 34.1965 84.8568 36.1246 81.4999 37.6009C78.199 39.0525 73.93 39.885 70.1629 40.3598L70.413 42.3441C74.2375 41.8621 78.7361 41.0012 82.305 39.4316C85.8178 37.8868 88.8232 35.4661 88.8232 31.6976H86.8232ZM86.8232 6.11626V31.6976H88.8232V6.11626H86.8232ZM95.3138 0C93.0705 0 90.9954 0.619345 89.4531 1.67276C87.9158 2.7228 86.8232 4.27633 86.8232 6.11626H88.8232C88.8232 5.13055 89.4075 4.12596 90.5812 3.32428C91.75 2.52597 93.4202 2 95.3138 2V0ZM96.9214 0H95.3138V2H96.9214V0ZM110.295 0H96.9214V2H110.295V0ZM111.902 0H110.295V2H111.902V0ZM120.393 6.11626C120.393 4.27633 119.3 2.7228 117.763 1.67276C116.221 0.619345 114.146 0 111.902 0V2C113.796 2 115.466 2.52597 116.635 3.32428C117.809 4.12596 118.393 5.13055 118.393 6.11626H120.393ZM120.393 31.6976V6.11626H118.393V31.6976H120.393ZM137.053 40.3598C133.286 39.885 129.017 39.0525 125.716 37.6009C122.359 36.1246 120.393 34.1965 120.393 31.6976H118.393C118.393 35.4661 121.398 37.8868 124.911 39.4316C128.48 41.0012 132.979 41.8621 136.803 42.3441L137.053 40.3598ZM134.233 30.4167C132.521 34.3291 133.263 38.5368 136.162 41.9944L137.695 40.7094C135.233 37.7735 134.688 34.3653 136.065 31.2184L134.233 30.4167ZM135.946 27.8836C135.246 28.6591 134.674 29.4978 134.248 30.3845L136.051 31.2506C136.387 30.5507 136.848 29.8696 137.431 29.2236L135.946 27.8836ZM155.09 20.541C152.681 20.6841 148.864 21.4774 145.21 22.7239C141.594 23.9572 137.909 25.7086 135.946 27.8836L137.431 29.2236C139.026 27.4566 142.278 25.837 145.855 24.6168C149.394 23.4098 153.029 22.6669 155.208 22.5375L155.09 20.541ZM168.25 21.4721C163.272 20.5414 156.901 20.438 155.092 20.5408L155.206 22.5376C156.885 22.4421 163.091 22.5422 167.883 23.438L168.25 21.4721ZM185.235 27.5611C180.267 24.7087 174.472 22.6352 168.25 21.4721L167.883 23.438C173.908 24.5645 179.487 26.5668 184.239 29.2954L185.235 27.5611ZM186.543 28.4275C185.922 28.0332 185.536 27.7859 185.357 27.6443L184.116 29.2122C184.398 29.436 184.904 29.7558 185.469 30.1153L186.543 28.4275ZM186.553 28.434L186.552 28.4336L185.46 30.1091L185.461 30.1096L186.553 28.434ZM186.565 28.442L186.564 28.4417L185.449 30.1018L185.449 30.1021L186.565 28.442ZM193.269 33.4059C190.821 31.1453 188.123 29.4324 186.544 28.4282L185.471 30.1159C187.055 31.1233 189.611 32.7509 191.912 34.8752L193.269 33.4059ZM198.034 88.3596C204.435 78.5607 207.241 68.5003 206.428 59.0196C205.614 49.5302 201.181 40.7121 193.269 33.4059L191.912 34.8752C199.494 41.8767 203.668 50.2453 204.435 59.1905C205.203 68.1443 202.565 77.7662 196.36 87.2658L198.034 88.3596ZM156.509 112C180.127 112 193.437 95.4188 198.035 88.3584L196.359 87.267C191.878 94.1483 179.091 110 156.509 110V112ZM141.759 110.121C146.463 111.383 151.469 112.019 156.512 112L156.505 110C151.632 110.019 146.803 109.403 142.277 108.189L141.759 110.121ZM138.842 108.949C140.092 109.515 141.256 109.996 141.776 110.125L142.26 108.185C141.951 108.108 140.963 107.714 139.667 107.127L138.842 108.949ZM124.32 78.9438C120.671 88.5164 122.35 95.3936 126.048 100.222C129.686 104.972 135.171 107.597 138.908 108.976L139.601 107.1C135.981 105.764 130.927 103.304 127.635 99.0057C124.403 94.7855 122.76 88.6512 126.188 79.6561L124.32 78.9438ZM134.964 70.4318C130.641 72.5932 127.047 75.4047 124.468 78.6816L126.04 79.9183C128.406 76.9109 131.753 74.2735 135.858 72.2207L134.964 70.4318ZM121.275 68.3367C125.764 69.8929 130.416 71.218 135.19 72.3015L135.633 70.3511C130.928 69.2834 126.348 67.9783 121.93 66.447L121.275 68.3367ZM120.831 68.1839L121.277 68.3374L121.928 66.4464L121.482 66.2929L120.831 68.1839ZM104.649 65.2031C110.406 65.5232 116.084 66.5788 120.836 68.1857L121.477 66.291C116.533 64.6195 110.675 63.5351 104.76 63.2062L104.649 65.2031ZM86.2658 68.1857C91.5135 66.4115 98.1261 65.3466 104.726 65.2044L104.683 63.2049C97.9185 63.3506 91.0993 64.4403 85.6252 66.291L86.2658 68.1857ZM85.8254 68.3374L86.2711 68.1839L85.6199 66.2929L85.1742 66.4464L85.8254 68.3374ZM71.9123 72.3015C76.6867 71.218 81.3379 69.8929 85.8273 68.3367L85.1723 66.447C80.7546 67.9783 76.1744 69.2834 71.4697 70.3511L71.9123 72.3015ZM82.634 78.6816C80.0555 75.4047 76.4609 72.5932 72.1382 70.4318L71.2438 72.2207C75.3494 74.2735 78.6958 76.9109 81.0623 79.9183L82.634 78.6816ZM68.8718 108.719C72.6763 107.239 77.9437 104.535 81.3704 99.7976C84.8496 94.9875 86.323 88.2321 82.7826 78.9438L80.9137 79.6561C84.2437 88.3922 82.7877 94.4256 79.7499 98.6255C76.6595 102.898 71.8222 105.425 68.1466 106.855L68.8718 108.719ZM65.4399 110.125C65.7589 110.046 66.2763 109.849 66.8487 109.613C67.4449 109.366 68.1674 109.048 68.9295 108.695L68.0889 106.88C67.346 107.224 66.6494 107.531 66.0844 107.764C65.4957 108.008 65.11 108.147 64.9563 108.185L65.4399 110.125ZM50.7038 112C55.747 112.019 60.7534 111.383 65.4572 110.121L64.9391 108.189C60.4132 109.403 55.584 110.019 50.7116 110L50.7038 112ZM130.864 81.2295C127.469 87.6952 128.471 93.4836 130.992 98.1153L132.749 97.159C130.484 92.9981 129.607 87.9252 132.634 82.1592L130.864 81.2295ZM146.801 71.5988C140.26 73.4289 134.809 76.4403 130.979 81.0558L132.519 82.3329C136.013 78.1207 141.059 75.2819 147.34 73.5248L146.801 71.5988ZM148.234 69.9967C148.311 70.2421 148.275 70.5066 148.064 70.7907C147.842 71.0909 147.419 71.4072 146.775 71.6064L147.366 73.5172C148.324 73.2208 149.144 72.6939 149.672 71.9808C150.212 71.2516 150.434 70.3329 150.144 69.4027L148.234 69.9967ZM145.545 68.6732C146.273 68.6764 146.923 68.8534 147.406 69.1222C147.896 69.3951 148.149 69.7215 148.234 69.9967L150.144 69.4027C149.864 68.5023 149.177 67.8193 148.379 67.3748C147.573 66.9262 146.586 66.6777 145.554 66.6733L145.545 68.6732ZM145.467 68.6697C145.474 68.6701 145.473 68.6701 145.468 68.6697C145.466 68.6696 145.455 68.6687 145.439 68.667C145.432 68.6663 145.415 68.6643 145.392 68.6607C145.381 68.6589 145.361 68.6555 145.336 68.6501C145.318 68.6462 145.264 68.6342 145.199 68.6096L145.901 66.7369C145.835 66.7122 145.781 66.7002 145.763 66.6962C145.738 66.6908 145.718 66.6873 145.706 66.6855C145.682 66.6818 145.664 66.6797 145.656 66.6788C145.638 66.6768 145.623 66.6757 145.617 66.6753C145.604 66.6743 145.591 66.6735 145.583 66.673L145.467 68.6697ZM145.438 68.6681L145.469 68.6698L145.581 66.6729L145.549 66.6712L145.438 68.6681ZM124.628 63.7463C137.767 68.2338 144.672 68.6259 145.438 68.6681L145.549 66.6711C144.958 66.6386 138.234 66.2797 125.274 61.8537L124.628 63.7463ZM124.178 63.5929L124.628 63.7463L125.274 61.8537L124.824 61.7002L124.178 63.5929ZM103.566 60.4642C110.625 60.3569 117.704 61.4024 124.181 63.5938L124.822 61.6993C118.114 59.4298 110.806 58.3539 103.536 58.4644L103.566 60.4642ZM82.9215 63.5938C89.3982 61.4024 96.4777 60.3569 103.536 60.4642L103.566 58.4644C96.2961 58.3539 88.9883 59.4298 82.2805 61.6993L82.9215 63.5938ZM82.4747 63.7463L82.9241 63.5929L82.2778 61.7002L81.8284 61.8537L82.4747 63.7463ZM61.6638 68.6681C62.4301 68.6259 69.335 68.2338 82.4747 63.7463L81.8283 61.8537C68.8685 66.2797 62.1445 66.6386 61.5537 66.6711L61.6638 68.6681ZM61.626 68.6702L61.6651 68.668L61.5524 66.6712L61.5133 66.6734L61.626 68.6702ZM61.9143 68.6056C61.8554 68.6284 61.8073 68.6405 61.7867 68.6454C61.7617 68.6515 61.7412 68.6554 61.7286 68.6576C61.7039 68.662 61.6844 68.6645 61.6757 68.6656C61.6573 68.6678 61.6434 68.669 61.6401 68.6692C61.6315 68.6699 61.6265 68.6702 61.6306 68.67L61.5087 66.6737C61.5023 66.6741 61.4892 66.6749 61.4749 66.6761C61.4688 66.6766 61.4526 66.6779 61.4326 66.6804C61.4231 66.6815 61.403 66.6841 61.3777 66.6886C61.3722 66.6896 61.2888 66.703 61.1909 66.7409L61.9143 68.6056ZM58.8678 69.9967C58.9534 69.7215 59.2064 69.3951 59.6965 69.1222C60.1793 68.8534 60.8292 68.6764 61.5569 68.6732L61.5483 66.6733C60.5165 66.6777 59.5293 66.9262 58.7236 67.3748C57.9252 67.8193 57.2381 68.5023 56.958 69.4027L58.8678 69.9967ZM60.3274 71.6064C59.683 71.4072 59.2602 71.0909 59.0379 70.7907C58.8276 70.5066 58.7915 70.2421 58.8678 69.9967L56.958 69.4027C56.6687 70.3329 56.8907 71.2516 57.4305 71.9808C57.9585 72.6939 58.7781 73.2208 59.7367 73.5172L60.3274 71.6064ZM76.1229 81.0558C72.2933 76.4403 66.8426 73.4289 60.3015 71.5988L59.7626 73.5248C66.0427 75.2819 71.0887 78.1207 74.5837 82.3329L76.1229 81.0558ZM75.9978 98.3186C78.5995 93.6551 79.684 87.7923 76.2387 81.2295L74.4679 82.1592C77.5388 88.0088 76.5926 93.1473 74.2512 97.3442L75.9978 98.3186ZM75.1939 99.1101C75.3995 98.9256 75.5959 98.7494 75.7869 98.5805L74.462 97.0823C74.2647 97.2568 74.063 97.4378 73.8583 97.6213L75.1939 99.1101ZM64.4521 105.368C69.8236 103.935 72.9344 101.137 75.1939 99.1101L73.8583 97.6213C71.6344 99.6164 68.8217 102.132 63.9365 103.436L64.4521 105.368ZM50.7031 106.883C54.7493 106.902 59.4991 106.69 64.4521 105.368L63.9365 103.436C59.2337 104.691 54.688 104.902 50.7123 104.883L50.7031 106.883ZM16.0236 86.2784C20.0081 92.4012 31.4822 106.883 50.7077 106.883V104.883C32.5555 104.883 21.6029 91.1851 17.6999 85.1875L16.0236 86.2784ZM19.9698 36.4475C12.8684 43.0052 8.91989 50.9719 8.24836 59.5821C7.57764 68.1819 10.182 77.335 16.0246 86.2798L17.699 85.1861C12.0473 76.5335 9.61249 67.8129 10.2423 59.7376C10.8713 51.6725 14.5631 44.1626 21.3267 37.9168L19.9698 36.4475ZM51.4691 25.6482C39.0367 25.3089 27.1184 29.3431 19.9434 36.4728L21.3531 37.8915C28.0471 31.2398 39.3826 27.319 51.4145 27.6474L51.4691 25.6482ZM65.8318 31.9596C64.849 29.8421 62.5008 28.364 59.9398 27.3831C57.3289 26.3832 54.2606 25.809 51.4995 25.6495L51.3841 27.6461C53.9787 27.7961 56.8391 28.3373 59.2244 29.2508C61.6596 30.1835 63.375 31.417 64.0177 32.8016L65.8318 31.9596ZM59.8578 43.4487C64.717 40.9499 67.3085 36.5426 65.877 32.0754L63.9724 32.6857C65.0012 35.8962 63.2766 39.4417 58.9432 41.6701L59.8578 43.4487ZM59.1814 44.921C59.0482 44.6725 59.0428 44.442 59.129 44.22C59.2222 43.98 59.4523 43.6839 59.9001 43.4256L58.9008 41.6931C58.1469 42.128 57.5564 42.7445 57.2646 43.4961C56.9658 44.2657 57.0111 45.1057 57.4188 45.866L59.1814 44.921ZM61.8194 46.0719C60.4577 46.0726 59.4845 45.4862 59.1814 44.9209L57.4188 45.866C58.1975 47.3183 60.0363 48.0729 61.8204 48.0719L61.8194 46.0719ZM94.2988 31.6976C94.2988 35.0729 92.5357 37.6584 89.681 39.6852C86.8014 41.7297 82.8884 43.1402 78.8409 44.1014C70.7583 46.0208 62.4828 46.0719 61.8199 46.0719V48.0719C62.524 48.0719 70.988 48.0219 79.303 46.0473C83.4544 45.0614 87.6548 43.5766 90.8389 41.316C94.0478 39.0377 96.2988 35.9083 96.2988 31.6976H94.2988ZM94.2988 6.11626V31.6976H96.2988V6.11626H94.2988ZM111.917 5.11626H95.2988V7.11626H111.917V5.11626ZM112.917 31.6976V6.11626H110.917V31.6976H112.917ZM145.396 46.0719C144.733 46.0719 136.458 46.0208 128.375 44.1014C124.328 43.1402 120.415 41.7297 117.535 39.6852C114.681 37.6584 112.917 35.0729 112.917 31.6976H110.917C110.917 35.9083 113.168 39.0377 116.377 41.316C119.561 43.5766 123.762 45.0614 127.913 46.0473C136.228 48.0219 144.692 48.0719 145.396 48.0719V46.0719ZM148.035 44.921C147.732 45.4862 146.759 46.0726 145.397 46.0719L145.396 48.0719C147.18 48.0729 149.019 47.3183 149.797 45.866L148.035 44.921ZM147.316 43.4256C147.764 43.6839 147.994 43.98 148.087 44.22C148.173 44.442 148.168 44.6725 148.035 44.921L149.797 45.866C150.205 45.1057 150.25 44.2657 149.952 43.4961C149.66 42.7445 149.069 42.128 148.315 41.6931L147.316 43.4256ZM141.339 32.0754C139.908 36.5426 142.499 40.9499 147.358 43.4487L148.273 41.6701C143.94 39.4417 142.215 35.8962 143.244 32.6857L141.339 32.0754ZM155.717 25.6495C152.956 25.809 149.887 26.3832 147.276 27.3831C144.715 28.364 142.367 29.8421 141.384 31.9596L143.199 32.8016C143.841 31.417 145.557 30.1835 147.992 29.2508C150.377 28.3373 153.238 27.7961 155.832 27.6461L155.717 25.6495ZM187.273 36.4728C180.098 29.3431 168.18 25.3089 155.747 25.6482L155.802 27.6474C167.834 27.319 179.169 31.2398 185.863 37.8915L187.273 36.4728ZM191.192 86.2798C197.034 77.335 199.639 68.1819 198.968 59.5821C198.296 50.9719 194.348 43.0052 187.246 36.4475L185.89 37.9168C192.653 44.1626 196.345 51.6725 196.974 59.7376C197.604 67.8129 195.169 76.5335 189.517 85.1861L191.192 86.2798ZM156.509 106.883C175.734 106.883 187.208 92.4012 191.193 86.2784L189.516 85.1875C185.613 91.1851 174.661 104.883 156.509 104.883V106.883ZM142.764 105.368C147.717 106.69 152.467 106.902 156.513 106.883L156.504 104.883C152.528 104.902 147.983 104.691 143.28 103.436L142.764 105.368ZM132.022 99.1101C134.282 101.137 137.393 103.935 142.764 105.368L143.28 103.436C138.395 102.132 135.582 99.6164 133.358 97.6213L132.022 99.1101ZM131.213 98.3908C131.471 98.6153 131.738 98.8546 132.022 99.1101L133.358 97.6213C133.075 97.3678 132.798 97.1188 132.528 96.8835L131.213 98.3908ZM105.549 41.9304V52.1629H107.549V41.9304H105.549ZM102.804 40.3723C103.663 40.3723 104.397 40.6119 104.888 40.9473C105.384 41.286 105.549 41.6511 105.549 41.9304H107.549C107.549 40.7969 106.876 39.8829 106.016 39.2958C105.152 38.7053 104.013 38.3723 102.804 38.3723V40.3723ZM100.059 41.9304C100.059 41.6511 100.224 41.286 100.72 40.9473C101.211 40.6119 101.945 40.3723 102.804 40.3723V38.3723C101.595 38.3723 100.456 38.7053 99.5918 39.2958C98.7322 39.8829 98.0588 40.7969 98.0588 41.9304H100.059ZM100.059 52.1629V41.9304H98.0588V52.1629H100.059ZM102.804 53.721C101.945 53.721 101.211 53.4814 100.72 53.146C100.224 52.8073 100.059 52.4422 100.059 52.1629H98.0588C98.0588 53.2964 98.7322 54.2104 99.5918 54.7975C100.456 55.388 101.595 55.721 102.804 55.721V53.721ZM105.549 52.1629C105.549 52.4422 105.384 52.8073 104.888 53.146C104.397 53.4814 103.663 53.721 102.804 53.721V55.721C104.013 55.721 105.152 55.388 106.016 54.7975C106.876 54.2104 107.549 53.2964 107.549 52.1629H105.549ZM18.8463 54.0854C20.2377 49.3755 23.1216 44.8912 27.3408 40.9547L25.9765 39.4924C21.5376 43.6337 18.4359 48.4154 16.9282 53.5188L18.8463 54.0854ZM20.9244 55.8411C20.0871 55.7209 19.4788 55.39 19.1395 55.035C18.8141 54.6946 18.7575 54.3747 18.8431 54.0958L16.9313 53.5084C16.5923 54.6119 16.9713 55.6612 17.6937 56.4169C18.4022 57.1581 19.4538 57.6505 20.6402 57.8208L20.9244 55.8411ZM21.5549 55.8847C21.3411 55.8844 21.1286 55.8696 20.9206 55.8405L20.644 57.8213C20.9439 57.8632 21.2482 57.8843 21.5528 57.8847L21.5549 55.8847ZM24.2548 54.5518C24.1723 54.8279 23.9212 55.1572 23.428 55.433C22.9423 55.7046 22.2865 55.8833 21.5519 55.8847L21.5558 57.8846C22.5969 57.8827 23.5931 57.6322 24.4043 57.1786C25.208 56.7291 25.8985 56.0368 26.1711 55.1245L24.2548 54.5518ZM31.9937 42.5199C28.2007 46.0719 25.5459 50.1736 24.2538 54.5553L26.1721 55.121C27.3486 51.1316 29.7866 47.3267 33.3608 43.9797L31.9937 42.5199ZM49.0877 35.8148C42.2748 36.1556 35.9657 38.5881 31.9738 42.5391L33.3807 43.9606C36.9415 40.4363 42.7389 38.1349 49.1877 37.8123L49.0877 35.8148ZM51.883 34.2554C51.883 34.5347 51.7179 34.8998 51.222 35.2385C50.731 35.5739 49.9971 35.8136 49.1377 35.8136V37.8136C50.3468 37.8136 51.4855 37.4806 52.35 36.8901C53.2096 36.303 53.883 35.389 53.883 34.2554H51.883ZM49.1377 32.6973C49.9971 32.6973 50.731 32.937 51.222 33.2723C51.7179 33.6111 51.883 33.9761 51.883 34.2554H53.883C53.883 33.1219 53.2096 32.2079 52.35 31.6208C51.4855 31.0303 50.3468 30.6973 49.1377 30.6973V32.6973ZM27.3592 40.9371C32.2976 36.0885 40.3368 33.0038 49.1724 32.6967L49.103 30.6979C39.8971 31.0179 31.336 34.2297 25.958 39.51L27.3592 40.9371ZM176.028 93.0374C180.467 88.896 183.569 84.1143 185.076 79.0109L183.158 78.4443C181.767 83.1542 178.883 87.6386 174.664 91.575L176.028 93.0374ZM152.901 101.832C162.107 101.512 170.668 98.3001 176.046 93.0197L174.645 91.5926C169.707 96.4413 161.668 99.5259 152.832 99.833L152.901 101.832ZM148.121 98.2743C148.121 99.4078 148.795 100.322 149.654 100.909C150.519 101.499 151.658 101.832 152.867 101.832V99.8324C152.007 99.8324 151.273 99.5928 150.782 99.2574C150.286 98.9186 150.121 98.5536 150.121 98.2743H148.121ZM152.867 94.7162C151.658 94.7162 150.519 95.0492 149.654 95.6397C148.795 96.2268 148.121 97.1408 148.121 98.2743H150.121C150.121 97.995 150.286 97.6299 150.782 97.2912C151.273 96.9558 152.007 96.7162 152.867 96.7162V94.7162ZM168.624 88.5692C165.063 92.0934 159.266 94.3948 152.817 94.7174L152.917 96.7149C159.73 96.3741 166.039 93.9416 170.031 89.9906L168.624 88.5692ZM175.832 77.4087C174.656 81.3981 172.218 85.203 168.644 88.55L170.011 90.0098C173.804 86.4579 176.458 82.3561 177.751 77.9744L175.832 77.4087ZM180.449 74.6451C179.407 74.6471 178.411 74.8975 177.6 75.3512C176.796 75.8007 176.106 76.493 175.833 77.4052L177.75 77.9779C177.832 77.7018 178.083 77.3725 178.576 77.0967C179.062 76.8251 179.718 76.6465 180.452 76.6451L180.449 74.6451ZM181.36 74.7084C181.061 74.6665 180.756 74.6454 180.452 74.6451L180.45 76.6451C180.663 76.6453 180.876 76.6601 181.084 76.6892L181.36 74.7084ZM185.073 79.0213C185.412 77.9178 185.033 76.8686 184.311 76.1128C183.602 75.3716 182.551 74.8793 181.364 74.7089L181.08 76.6887C181.917 76.8089 182.526 77.1397 182.865 77.4947C183.19 77.8351 183.247 78.155 183.161 78.4339L185.073 79.0213Z" fill="#FFC59E" mask="url(#path-1-outside-1_376_1636)"/>
</svg>
