<?xml version="1.0" standalone="no"?>
<!DOCTYPE svg PUBLIC "-//W3C//DTD SVG 20010904//EN"
 "http://www.w3.org/TR/2001/REC-SVG-20010904/DTD/svg10.dtd">
<svg version="1.0" xmlns="http://www.w3.org/2000/svg"
 width="512.000000pt" height="512.000000pt" viewBox="0 0 512.000000 512.000000"
 preserveAspectRatio="xMidYMid meet">

<g transform="translate(0.000000,512.000000) scale(0.100000,-0.100000)"
fill="#000000" stroke="none">
<path d="M1836 4830 c-32 -12 -70 -28 -85 -38 -145 -91 -250 -260 -298 -482
-27 -126 -24 -360 6 -500 58 -270 190 -495 357 -605 68 -45 186 -85 252 -85
416 0 660 602 476 1175 -78 243 -223 428 -402 513 -96 46 -214 54 -306 22z
m245 -227 c252 -137 388 -658 262 -1008 -128 -353 -416 -344 -593 18 -77 158
-95 245 -95 462 0 199 11 258 67 369 91 181 217 237 359 159z"/>
<path d="M3266 4839 c-93 -23 -212 -106 -297 -207 -94 -112 -157 -242 -205
-427 -35 -135 -45 -385 -20 -518 71 -376 311 -606 582 -560 107 19 187 64 284
162 199 200 301 498 287 840 -13 342 -158 608 -377 692 -62 25 -192 34 -254
18z m189 -223 c296 -138 311 -854 23 -1162 -98 -104 -179 -137 -274 -109 -105
30 -188 143 -236 320 -18 67 -21 107 -21 240 0 141 3 172 27 260 48 183 138
338 238 412 92 67 160 78 243 39z"/>
<path d="M498 3770 c-145 -37 -271 -153 -326 -301 -65 -177 -44 -370 67 -584
38 -75 64 -108 151 -195 91 -92 117 -112 200 -153 115 -57 190 -77 290 -77
143 0 247 42 344 138 161 159 192 428 81 693 -84 199 -280 384 -487 456 -57
20 -96 27 -178 29 -58 2 -122 -1 -142 -6z m309 -245 c108 -52 232 -176 286
-287 121 -250 66 -496 -124 -552 -66 -20 -99 -20 -174 -1 -313 82 -535 484
-410 741 50 103 131 146 262 140 69 -3 93 -9 160 -41z"/>
<path d="M4359 3765 c-227 -57 -450 -252 -544 -475 -44 -103 -65 -204 -65
-304 0 -161 44 -280 140 -380 95 -99 207 -146 350 -146 100 0 175 20 290 77
83 41 109 61 200 153 86 86 113 121 152 195 185 356 110 715 -178 852 -71 34
-85 37 -183 40 -68 1 -126 -3 -162 -12z m232 -210 c102 -35 165 -126 176 -253
14 -170 -63 -352 -207 -485 -138 -127 -295 -175 -423 -127 -181 68 -229 307
-109 550 52 107 179 234 282 283 41 19 86 37 100 40 56 10 139 6 181 -8z"/>
<path d="M2445 3079 c-658 -43 -1274 -558 -1562 -1304 -44 -115 -97 -320 -117
-456 -21 -137 -21 -369 -1 -485 53 -299 200 -465 476 -535 122 -31 399 -36
729 -14 325 22 869 22 1175 1 287 -21 546 -21 661 -1 328 58 501 235 554 569
16 100 13 348 -6 473 -63 426 -270 861 -558 1172 -389 419 -841 614 -1351 580z
m292 -220 c459 -61 891 -381 1162 -860 192 -338 289 -753 252 -1077 -30 -256
-125 -373 -341 -422 -104 -23 -338 -23 -675 0 -195 13 -418 21 -570 21 -230 0
-352 -5 -725 -31 -462 -33 -681 13 -784 164 -146 211 -120 704 58 1130 241
574 723 991 1241 1072 101 15 280 17 382 3z"/>
</g>
</svg>
