<?xml version="1.0" standalone="no"?>
<!DOCTYPE svg PUBLIC "-//W3C//DTD SVG 20010904//EN"
 "http://www.w3.org/TR/2001/REC-SVG-20010904/DTD/svg10.dtd">
<svg version="1.0" xmlns="http://www.w3.org/2000/svg"
 width="80" height="80" viewBox="0 0 512.000000 512.000000"
 preserveAspectRatio="xMidYMid meet">

<g transform="translate(0.000000,512.000000) scale(0.100000,-0.100000)"
fill="#FFC59E" stroke="none">
<path d="M557 4499 c-127 -31 -209 -125 -240 -278 l-12 -61 -59 47 c-32 27
-70 56 -85 65 -32 22 -89 23 -117 3 -28 -19 -48 -69 -40 -100 14 -56 139 -163
259 -221 43 -21 59 -35 63 -54 38 -177 82 -288 149 -382 19 -26 35 -51 35 -55
0 -4 -22 -50 -49 -102 -156 -306 -185 -584 -135 -1261 47 -633 172 -1177 352
-1536 66 -132 114 -158 274 -153 79 3 102 8 125 25 48 36 64 75 74 186 13 130
39 241 85 364 46 123 132 304 145 304 25 0 145 -34 155 -44 6 -6 35 -78 64
-161 106 -303 186 -463 286 -575 73 -80 109 -95 234 -95 96 0 108 2 138 24 49
38 58 84 38 206 -23 146 -36 293 -36 411 l0 104 220 2 c121 1 227 2 236 2 12
1 27 -28 54 -104 60 -168 97 -255 172 -403 108 -214 150 -247 308 -247 131 0
204 56 203 159 -1 25 -4 175 -8 332 -4 158 -5 297 -2 311 6 21 12 24 58 23
l52 0 19 -110 c23 -141 75 -304 149 -473 93 -214 125 -242 274 -242 122 0 170
28 195 115 9 32 8 80 -5 220 -9 99 -17 268 -18 375 l-2 194 95 26 c288 78 549
209 615 308 34 51 48 96 95 294 45 193 48 230 21 274 -33 55 -74 71 -187 76
-164 8 -182 26 -239 245 -18 71 -40 146 -49 167 -9 22 -14 41 -12 44 3 2 39
19 80 37 201 87 368 288 412 496 33 154 -1 399 -69 500 -46 68 -143 60 -179
-14 -64 -131 -222 -237 -435 -291 -55 -14 -107 -28 -115 -31 -10 -4 -24 8 -40
33 -135 203 -444 434 -787 587 -497 222 -961 283 -1496 194 -473 -78 -861
-259 -1141 -531 -70 -68 -93 -86 -101 -76 -32 40 -104 221 -92 232 2 3 37 12
77 20 230 48 346 215 285 407 -23 72 -99 150 -168 172 -68 22 -132 28 -178 16z
m126 -221 c14 -13 28 -38 31 -57 5 -29 2 -38 -28 -65 -35 -34 -93 -56 -146
-56 l-32 0 7 53 c15 103 46 147 106 147 25 0 46 -7 62 -22z m1941 -204 c379
-52 803 -225 1100 -448 85 -64 209 -186 250 -245 l29 -41 -55 -58 c-99 -105
-159 -211 -198 -356 -19 -68 -20 -78 -6 -111 20 -48 72 -71 122 -55 43 14 57
36 85 125 31 103 77 182 144 251 74 76 127 103 280 144 175 48 335 127 399
199 25 27 36 13 36 -45 0 -123 -57 -259 -147 -348 -92 -92 -176 -134 -328
-160 -104 -18 -131 -33 -144 -81 -14 -52 3 -88 60 -129 61 -45 79 -80 118
-236 17 -69 47 -157 67 -197 56 -115 148 -177 285 -189 38 -4 69 -10 69 -15 0
-15 -51 -225 -66 -271 -18 -55 -50 -82 -166 -139 -286 -142 -701 -229 -1088
-229 -208 0 -209 -1 -231 -240 -11 -121 -6 -482 8 -551 6 -29 5 -30 -27 -27
-32 3 -36 9 -96 128 -68 134 -172 387 -199 485 -10 33 -26 74 -36 91 -31 51
-51 55 -222 43 -289 -21 -740 7 -996 62 -53 12 -147 36 -208 55 -62 19 -126
34 -142 34 -53 0 -80 -35 -172 -224 -122 -252 -180 -432 -197 -611 -7 -70 -7
-70 -39 -73 -29 -3 -33 0 -58 55 -213 460 -325 1063 -342 1828 -5 233 -3 299
11 393 28 187 96 365 197 513 93 137 269 297 437 396 395 234 978 344 1466
277z m1336 -2936 c0 -123 11 -312 26 -467 9 -83 -9 -80 -53 9 -72 143 -150
386 -167 516 l-6 51 72 10 c40 6 85 11 101 12 l27 1 0 -132z m-2040 47 c69 -8
125 -15 126 -15 1 0 4 -69 8 -152 7 -144 15 -227 32 -358 l7 -55 -24 16 c-66
43 -157 208 -243 437 -25 68 -46 128 -46 133 0 11 -9 12 140 -6z"/>
<path d="M4150 2347 c-34 -17 -63 -79 -55 -116 8 -36 47 -77 79 -83 63 -12
128 41 128 105 0 81 -80 130 -152 94z"/>
</g>
</svg>
